<svg xmlns:dc="http://purl.org/dc/elements/1.1/" xmlns:cc="http://creativecommons.org/ns#" xmlns:rdf="http://www.w3.org/1999/02/22-rdf-syntax-ns#" xmlns:svg="http://www.w3.org/2000/svg" xmlns="http://www.w3.org/2000/svg" xmlns:sodipodi="http://sodipodi.sourceforge.net/DTD/sodipodi-0.dtd" xmlns:inkscape="http://www.inkscape.org/namespaces/inkscape" version="1.1" x="0px" y="0px" width="92" height="53" viewBox="0 0 92 53" enable-background="new 0 0 100 100" xml:space="preserve" inkscape:version="0.48.2 r9819"><style>.style0{fill:	#ffffff;stroke:	#446d7c;stroke-miterlimit:	10;stroke-miterlimit:	10;}.style1{fill:	#2a3439;stroke:	#446d7c;stroke-width:	0.5;stroke-miterlimit:	10;stroke-miterlimit:	10;}.style2{fill:	#fafaf9;}</style><metadata><rdf:RDF><cc:Work rdf:about=""><dc:format>image/svg+xml</dc:format><dc:type rdf:resource="http://purl.org/dc/dcmitype/StillImage"/><dc:title/></cc:Work></rdf:RDF></metadata><defs/><path d="m 2.1 33.8 c 0 0 0.4 -15.4 15.6 -13.9 2.6 -10.3 9.8 -20.6 27 -14.5 7.5 -6.7 21.6 -4.6 26.6 7.7 7.2 0.8 6.5 7.8 6.5 7.8 0 0 13.6 -2.3 13.6 12.9 0 15.2 -17 12.1 -18.6 9.5 2 5.9 -10.8 12.4 -20.9 3.6 1.1 4.3 -5.5 9 -15 -0.2 -0.5 3.8 -15 8 -17.5 1.5 C 15.1 51.7 0.6 46.4 2.1 33.8 z" inkscape:connector-curvature="0" class="style0"/><circle cx="47.5" cy="9.6" r="3" class="style1"/><path d="m 49 13.9 -1.3 0.1 -1.3 -0.1 c 0 0 -6.1 -0.3 -4 3.5 2.1 3.8 2.2 3.7 2.2 5.4 0 1.7 1.1 22.2 1.1 22.2 0 0 0.4 4 2.1 3.5 1.7 0.5 2.1 -3.5 2.1 -3.5 0 0 1.1 -20.5 1.1 -22.2 0 -1.7 0.1 -1.6 2.2 -5.4 2.1 -3.8 -4 -3.5 -4 -3.5 z" inkscape:connector-curvature="0" class="style1"/><polygon points="42.6,8.9 19.5,0.7 15.4,12.1 38.5,20.3 38,14" class="style1"/><rect x="20.8" y="-2.4" transform="matrix(0.94168534,0.33649476,-0.33649476,0.94168534,0,0)" width="17.8" height="4.7" class="style2"/><polygon points="52,8.9 75.1,0.7 79.2,12.1 56.1,20.3 56.6,14" class="style1"/><rect x="-67.9" y="-34.3" transform="matrix(-0.94168534,0.33649476,-0.33649476,-0.94168534,0,0)" width="17.8" height="4.7" class="style2"/></svg>