<?xml version="1.0" encoding="UTF-8" standalone="no"?>
<!-- Generator: Adobe Illustrator 15.0.0, SVG Export Plug-In . SVG Version: 6.00 Build 0)  -->

<svg
   xmlns:dc="http://purl.org/dc/elements/1.1/"
   xmlns:cc="http://creativecommons.org/ns#"
   xmlns:rdf="http://www.w3.org/1999/02/22-rdf-syntax-ns#"
   xmlns:svg="http://www.w3.org/2000/svg"
   xmlns="http://www.w3.org/2000/svg"
   xmlns:sodipodi="http://sodipodi.sourceforge.net/DTD/sodipodi-0.dtd"
   xmlns:inkscape="http://www.inkscape.org/namespaces/inkscape"
   version="1.1"
   id="Layer_1"
   x="0px"
   y="0px"
   width="92"
   height="53"
   viewBox="0 0 92 53"
   enable-background="new 0 0 100 100"
   xml:space="preserve"
   inkscape:version="0.48.2 r9819"
   sodipodi:docname="PicarusSmall.svg"><metadata
   id="metadata21"><rdf:RDF><cc:Work
       rdf:about=""><dc:format>image/svg+xml</dc:format><dc:type
         rdf:resource="http://purl.org/dc/dcmitype/StillImage" /><dc:title></dc:title></cc:Work></rdf:RDF></metadata><defs
   id="defs19" /><sodipodi:namedview
   pagecolor="#ffffff"
   bordercolor="#666666"
   borderopacity="1"
   objecttolerance="10"
   gridtolerance="10"
   guidetolerance="10"
   inkscape:pageopacity="0"
   inkscape:pageshadow="2"
   inkscape:window-width="640"
   inkscape:window-height="480"
   id="namedview17"
   showgrid="false"
   inkscape:zoom="2.36"
   inkscape:cx="30.416754"
   inkscape:cy="18.17211"
   inkscape:window-x="0"
   inkscape:window-y="0"
   inkscape:window-maximized="0"
   inkscape:current-layer="Layer_1" />
<path
   stroke-miterlimit="10"
   d="m 2.062,33.83 c 0,0 0.437,-15.362 15.638,-13.893 2.613,-10.296 9.807,-20.595 26.97,-14.548 7.52,-6.701 21.576,-4.577 26.642,7.684 7.191,0.815 6.541,7.845 6.541,7.845 0,0 13.564,-2.288 13.564,12.913 0,15.203 -16.999,12.118 -18.634,9.493 1.963,5.873 -10.814,12.356 -20.948,3.555 1.143,4.276 -5.529,8.968 -15.01,-0.161 -0.491,3.787 -15.04,8.035 -17.49,1.497 C 15.083,51.745 0.644,46.416 2.062,33.83 z"
   id="path3"
   inkscape:connector-curvature="0"
   style="fill:#ffffff;stroke:#446d7c;stroke-miterlimit:10" />
<circle
   stroke-miterlimit="10"
   cx="51.533001"
   cy="32.577999"
   r="2.9809999"
   id="circle5"
   sodipodi:cx="51.533001"
   sodipodi:cy="32.577999"
   sodipodi:rx="2.9809999"
   sodipodi:ry="2.9809999"
   style="fill:#2a3439;stroke:#446d7c;stroke-width:0.5;stroke-miterlimit:10"
   transform="translate(-4,-23)" />
<path
   stroke-miterlimit="10"
   d="m 48.961,13.902 -1.257,0.13 -1.258,-0.13 c 0,0 -6.109,-0.253 -4.046,3.53 2.064,3.783 2.152,3.668 2.152,5.387 0,1.719 1.058,22.237 1.058,22.237 0,0 0.421,4.021 2.094,3.546 1.674,0.476 2.092,-3.546 2.092,-3.546 0,0 1.06,-20.518 1.06,-22.237 0,-1.719 0.086,-1.604 2.151,-5.387 2.062,-3.783 -4.046,-3.53 -4.046,-3.53 z"
   id="path7"
   inkscape:connector-curvature="0"
   style="fill:#2a3439;stroke:#446d7c;stroke-width:0.5;stroke-miterlimit:10" />
<polygon
   stroke-miterlimit="10"
   points="46.614,31.931 23.527,23.683 19.45,35.09 42.538,43.339 42.032,36.994 "
   id="polygon9"
   style="fill:#2a3439;stroke:#446d7c;stroke-width:0.5;stroke-miterlimit:10"
   transform="translate(-4,-23)" />
<rect
   x="20.755032"
   y="-2.4218624"
   transform="matrix(0.94168534,0.33649476,-0.33649476,0.94168534,0,0)"
   width="17.753277"
   height="4.6870728"
   id="rect11"
   style="fill:#fafaf9" />
<polygon
   stroke-miterlimit="10"
   points="56.013,31.931 79.099,23.683 83.176,35.09 60.088,43.339 60.595,36.994 "
   id="polygon13"
   style="fill:#2a3439;stroke:#446d7c;stroke-width:0.5;stroke-miterlimit:10"
   transform="translate(-4,-23)" />
<rect
   x="-67.922195"
   y="-34.307243"
   transform="matrix(-0.94168534,0.33649476,-0.33649476,-0.94168534,0,0)"
   width="17.754276"
   height="4.6880732"
   id="rect15"
   style="fill:#fafaf9" />
</svg>